# xmcd
#
# Track frame offsets:
#	150
#	15476
#	31174
#	47353
#	62359
#	79936
#	93233
#	104722
#	120574
#	138777
#	154764
#	170030
#	190387
#	204681
#	218898
#
# Disc length: 3139 seconds
#
# Revision: 1
# Processed by: cddbd v1.5.2PL0 Copyright (c) Steve Scherf et al.
# Submitted via: audiograbber 1.83.01
#
DISCID=c50c410f
DTITLE=Miscellaneous - Country Karaoke Time Line The Best Of 1980
DYEAR=1980
DGENRE=Country
TTITLE0=Lookin' For Love_Johnny Lee
TTITLE1=Friday Night Blues_John Conlee
TTITLE2=Do Ya Wanna Go To Heaven_T. G. Sheppard
TTITLE3=Could I Have This Dance_Anne Murray
TTITLE4=Lady_Kenny Rogers
TTITLE5=One In A Million_Johnny Lee
TTITLE6=On The Road Again - Willie Nelson
TTITLE7=If You Ever Change Your Mind_Crystal Gayle
TTITLE8=Smoky Mountain Rain_Ronnie Milsap
TTITLE9=Why Lady Why_Alabama
TTITLE10=Crackers_Barbra Mandrell
TTITLE11=Coward Of The County_Kenny Rogers
TTITLE12=A Lesson In Leavin_Dottie West
TTITLE13=He Stopped Loving Her Today_George Jones
TTITLE14=I'd Love To Lay You Down_Conway Twitty
EXTD=
EXTT0=
EXTT1=
EXTT2=
EXTT3=
EXTT4=
EXTT5=
EXTT6=
EXTT7=
EXTT8=
EXTT9=
EXTT10=
EXTT11=
EXTT12=
EXTT13=
EXTT14=
PLAYORDER=
